<svg id="visual" viewBox="0 0 1400 320" width="1400" height="320" xmlns="http://www.w3.org/2000/svg" xmlns:xlink="http://www.w3.org/1999/xlink" version="1.1"><path d="M0 218L14.7 220.3C29.3 222.7 58.7 227.3 87.8 228.2C117 229 146 226 175.2 227.5C204.3 229 233.7 235 262.8 239.5C292 244 321 247 350.2 243.7C379.3 240.3 408.7 230.7 437.8 225C467 219.3 496 217.7 525.2 217.8C554.3 218 583.7 220 612.8 225.8C642 231.7 671 241.3 700.2 243.2C729.3 245 758.7 239 787.8 236.8C817 234.7 846 236.3 875.2 234.7C904.3 233 933.7 228 962.8 230.2C992 232.3 1021 241.7 1050.2 241.7C1079.3 241.7 1108.7 232.3 1137.8 230.3C1167 228.3 1196 233.7 1225.2 236.3C1254.3 239 1283.7 239 1312.8 240.2C1342 241.3 1371 243.7 1385.5 244.8L1400 246L1400 321L1385.5 321C1371 321 1342 321 1312.8 321C1283.7 321 1254.3 321 1225.2 321C1196 321 1167 321 1137.8 321C1108.7 321 1079.3 321 1050.2 321C1021 321 992 321 962.8 321C933.7 321 904.3 321 875.2 321C846 321 817 321 787.8 321C758.7 321 729.3 321 700.2 321C671 321 642 321 612.8 321C583.7 321 554.3 321 525.2 321C496 321 467 321 437.8 321C408.7 321 379.3 321 350.2 321C321 321 292 321 262.8 321C233.7 321 204.3 321 175.2 321C146 321 117 321 87.8 321C58.7 321 29.3 321 14.7 321L0 321Z" fill="#dde6ed"></path><path d="M0 271L14.7 269.5C29.3 268 58.7 265 87.8 260.7C117 256.3 146 250.7 175.2 248.3C204.3 246 233.7 247 262.8 251.7C292 256.3 321 264.7 350.2 266C379.3 267.3 408.7 261.7 437.8 262C467 262.3 496 268.7 525.2 267.7C554.3 266.7 583.7 258.3 612.8 257.5C642 256.7 671 263.3 700.2 265.5C729.3 267.7 758.7 265.3 787.8 260.7C817 256 846 249 875.2 246.5C904.3 244 933.7 246 962.8 248.8C992 251.7 1021 255.3 1050.2 255C1079.3 254.7 1108.7 250.3 1137.8 251.3C1167 252.3 1196 258.7 1225.2 260.8C1254.3 263 1283.7 261 1312.8 258.7C1342 256.3 1371 253.7 1385.5 252.3L1400 251L1400 321L1385.5 321C1371 321 1342 321 1312.8 321C1283.7 321 1254.3 321 1225.2 321C1196 321 1167 321 1137.8 321C1108.7 321 1079.3 321 1050.2 321C1021 321 992 321 962.8 321C933.7 321 904.3 321 875.2 321C846 321 817 321 787.8 321C758.7 321 729.3 321 700.2 321C671 321 642 321 612.8 321C583.7 321 554.3 321 525.2 321C496 321 467 321 437.8 321C408.7 321 379.3 321 350.2 321C321 321 292 321 262.8 321C233.7 321 204.3 321 175.2 321C146 321 117 321 87.8 321C58.7 321 29.3 321 14.7 321L0 321Z" fill="#83898b"></path><path d="M0 268L14.7 270.8C29.3 273.7 58.7 279.3 87.8 279.7C117 280 146 275 175.2 274.2C204.3 273.3 233.7 276.7 262.8 276.2C292 275.7 321 271.3 350.2 272.5C379.3 273.7 408.7 280.3 437.8 283.7C467 287 496 287 525.2 285.2C554.3 283.3 583.7 279.7 612.8 279C642 278.3 671 280.7 700.2 279.3C729.3 278 758.7 273 787.8 272.7C817 272.3 846 276.7 875.2 277.7C904.3 278.7 933.7 276.3 962.8 276.2C992 276 1021 278 1050.2 278.8C1079.3 279.7 1108.7 279.3 1137.8 280.3C1167 281.3 1196 283.7 1225.2 282C1254.3 280.3 1283.7 274.7 1312.8 274.3C1342 274 1371 279 1385.5 281.5L1400 284L1400 321L1385.5 321C1371 321 1342 321 1312.8 321C1283.7 321 1254.3 321 1225.2 321C1196 321 1167 321 1137.8 321C1108.7 321 1079.3 321 1050.2 321C1021 321 992 321 962.8 321C933.7 321 904.3 321 875.2 321C846 321 817 321 787.8 321C758.7 321 729.3 321 700.2 321C671 321 642 321 612.8 321C583.7 321 554.3 321 525.2 321C496 321 467 321 437.8 321C408.7 321 379.3 321 350.2 321C321 321 292 321 262.8 321C233.7 321 204.3 321 175.2 321C146 321 117 321 87.8 321C58.7 321 29.3 321 14.7 321L0 321Z" fill="#353636"></path></svg>