<svg version="1.2" xmlns="http://www.w3.org/2000/svg" viewBox="0 0 480 900" width="480" height="900">
	<title>MVA24 logo white version-svg</title>
	<style>
		.s0 { fill: none } 
		.s1 { fill: #ffffff } 
		.s2 { fill: #ff0000 } 
	</style>
	<g id="Layer">
		<g id="Layer">
			<path id="Layer" class="s0" d="m-310 0h1100v900h-1100z"/>
			<path id="Layer" class="s0" d="m-310 0h1100v900h-1100z"/>
			<path id="Layer" class="s1" d="m19.1 460.3h-20l51.8-85.2h16.7l23.7 38.8 23.7-39.1h17l52.3 85.5h-19.9l-40.8-71-22.3 40.4 18.7 30.6h-20.2l-8.1-13.9-8.1 14.3h-20.5l19.1-31.7-22.9-39.2z"/>
			<path id="Layer" class="s2" d="m163.7 374.8l40.5 70.6 40.9-70.6h19.9l-52.2 85.9h-17.7l-52.4-85.9z"/>
			<path id="Layer" class="s1" d="m223.3 460.8l20.5-0.1 40.7-71 40.1 71h19.9l-51.9-85.9h-17.5z"/>
			<path id="Layer" class="s1" d="m410.6 442.7c-1.8 6.2-4.2 13.3-5.6 18.4h-52v-3.3c7.6-7.5 15.9-15.6 22.7-23.5 8.7-10.2 16.9-21.2 16.9-33.2 0-11.5-6-18.1-16.1-18.1-9.5 0-15.5 7.4-19 12.8l-3.2-2.9 7.8-11.2c4.3-4.8 10.9-8.3 18.9-8.3 13.2 0 23.5 9 23.5 23.9 0 11.7-4.3 20-17.4 33.4-5.9 6.2-14.6 14.6-20.5 20.3 0.8 0 25.1 0 26.3 0 7.5 0 9.5-0.7 14.2-9.4z"/>
			<path id="Layer" fill-rule="evenodd" class="s1" d="m467.3 436v10.5c0 9.1 0.6 9.8 10.4 10.7v3.9h-32.3v-3.9c10.4-0.9 11-1.8 11-10.9v-10.3h-36.4v-4.2c13.1-18.6 27.3-38.7 41.1-57.9h6.2v55.4h13.6v6.7c0 0-13.6 0-13.6 0zm-10.9-47.6c-8.7 12.7-18.3 26.7-27.8 40.9h27.8z"/>
			<g id="Layer">
				<path id="Layer" class="s1" d="m32.4 490.8h18.2v3.4h-18.2zm7.3 2.2h3.6v23.7h-3.6z"/>
				<path id="Layer" class="s1" d="m56.8 490.8h3.6v25.9h-3.6zm11.2 14.7q0-2-1-3-1-1.1-2.9-1.1-1.7 0-2.7 0.9-1 0.9-1 2.6l-0.4-3.5q0.9-1.7 2.3-2.6 1.4-0.9 3-0.9 3 0 4.7 2 1.6 2 1.6 5.6v11.2h-3.6z"/>
				<path id="Layer" class="s1" d="m85.8 517q0 0-1.8-1-1.8-1-2.8-2.8-0.9-1.9-0.9-4.5v-2.1q0-2.8 0.9-4.7 0.9-1.9 2.7-3 1.7-1 4.2-1 2.3 0 3.9 1.2 1.6 1.1 2.5 3.3 0.9 2.2 0.9 5.3v1.2h-12.5v-2.9h9q-0.2-2.3-1.2-3.5-1-1.3-2.7-1.3-2 0-3.2 1.4-1.1 1.3-1.1 3.8v2.3q0 2.3 1.2 3.6 1.2 1.2 3.5 1.2 1.1 0 2.1-0.5 1.1-0.4 2-1.2l2.4 2.4q-1.4 1.3-3.1 2-1.7 0.7-3.4 0.7-2.6 0.1-2.6 0.1z"/>
				<path id="Layer" fill-rule="evenodd" class="s1" d="m124.9 490.8h3.1l9.5 25.9h-3.9l-2-5.7h1.7v-3.5h-2.9l-4-11.7-4 11.7h-2.7v3.5h1.5l-2 5.7h-3.9zm6.8 20.2l-1.2-3.5h-8.1l-1.2 3.5z"/>
				<path id="Layer" class="s1" d="m144.7 498.2h3.7v18.5h-3.7zm9 3.5q-0.8-0.3-1.7-0.3-1.7 0-2.7 0.9-0.9 1-0.9 2.7l-0.4-3.6q0.8-1.7 2.2-2.6 1.4-0.9 3-0.9 1.3 0 2.3 0.4 1 0.3 1.8 1.1l-2.4 3.2q-0.5-0.6-1.2-0.9z"/>
				<path id="Layer" class="s1" d="m162.5 498.2h8.3v3.3h-8.3zm3 17.3q-1.1-1.2-1.1-3.7v-19h3.6v19.1q0 0.7 0.3 1 0.3 0.4 0.8 0.4h1.7v3.4h-2.1q-2.2 0-3.2-1.2z"/>
				<path id="Layer" fill-rule="evenodd" class="s1" d="m195.9 516q-1.7-0.9-2.6-2.8-0.9-1.8-0.9-4.3v-3q0-2.5 0.9-4.3 0.9-1.8 2.6-2.7 1.7-1 4.1-1 2.4 0 4.1 1 1.7 0.9 2.6 2.7 0.9 1.8 0.9 4.3v3q0 2.6-0.9 4.4-0.9 1.8-2.6 2.7-1.7 0.9-4.1 0.9-2.4 0-4.1-0.9zm7.1-3.7q1-1.2 1-3.4v-3q0-2.2-1-3.3-1.1-1.2-3-1.2-1.9 0-2.9 1.2-1.1 1.1-1.1 3.3v3q0 2.2 1.1 3.4 1 1.2 2.9 1.2 1.9 0 3-1.2z"/>
				<path id="Layer" class="s1" d="m215 498.2h9.3v3.1h-9.3zm2-2.5q0-2.5 1.1-3.7 1.1-1.2 3.5-1.2h2.7v3.4h-2.6q-0.6 0-0.8 0.4-0.3 0.4-0.3 1v21.1h-3.6z"/>
				<path id="Layer" class="s1" d="m249.1 516.7h-3.6v-25.9h3.6z"/>
				<path id="Layer" class="s1" d="m258.8 498.2h3.6v18.5h-3.6zm11.2 7.3q0-2-1-3.1-1-1-2.9-1-1.7 0-2.7 0.9-1 1-1 2.7l-0.4-3.6q0.9-1.7 2.3-2.6 1.4-0.9 3-0.9 3.1 0 4.7 2 1.6 1.9 1.6 5.6v11.2h-3.6z"/>
				<path id="Layer" class="s1" d="m282.8 498.2h3.6v18.5h-3.6zm11.2 7.3q0-2-1-3.1-1-1-2.8-1-1.8 0-2.8 0.9-1 1-1 2.7l-0.3-3.6q0.8-1.7 2.2-2.6 1.4-0.9 3.1-0.9 3 0 4.6 2 1.7 1.9 1.7 5.6v11.2h-3.7v-11.2z"/>
				<path id="Layer" fill-rule="evenodd" class="s1" d="m309.8 516q-1.7-0.9-2.6-2.8-0.9-1.8-0.9-4.3v-3q0-2.5 0.9-4.3 0.9-1.8 2.6-2.7 1.7-1 4.1-1 2.4 0 4.1 1 1.7 0.9 2.6 2.7 0.9 1.8 0.9 4.3v3q0 2.6-0.9 4.4-0.9 1.8-2.6 2.7-1.7 0.9-4.1 0.9-2.4 0.1-4.1-0.9zm7.1-3.7q1-1.2 1-3.4v-3q0-2.2-1-3.3-1.1-1.2-3-1.2-1.9 0-2.9 1.2-1.1 1.1-1.1 3.3v3q0 2.2 1.1 3.4 1 1.2 2.9 1.2 1.9 0 3-1.2z"/>
				<path id="Layer" class="s1" d="m340.5 498.2h3.8l-6.9 18.5h-2.8l-6.9-18.5h3.8l4.5 13.2z"/>
				<path id="Layer" class="s1" d="m352.3 515.5q-1.7-1.4-1.7-4.3 0-2.7 1.6-4.1 1.5-1.3 4.7-1.4h5.2l0.3 3h-5.5q-1.5 0-2.2 0.6-0.7 0.6-0.7 1.9 0 1.4 1 2.1 0.9 0.7 2.8 0.7 2.1 0 3.1-0.5 1-0.4 1-1.4l0.4 2.6q-0.5 0.8-1.2 1.3-0.7 0.5-1.6 0.7-0.9 0.2-2.1 0.2-3.4 0-5.1-1.4zm9.7-10.5q0-1.9-1-2.9-1-1-2.8-1-1.1 0-2.1 0.4-1.1 0.3-1.9 0.9l-2.6-1.8q1-1.3 2.7-2 1.7-0.7 3.8-0.7 2.3 0 4 0.8 1.6 0.8 2.5 2.4 0.8 1.5 0.8 3.7v11.9h-3.4z"/>
				<path id="Layer" class="s1" d="m373.2 498.2h8.3v3.3h-8.3zm2.9 17.3q-1-1.2-1-3.7v-19h3.6v19.1q0 0.7 0.3 1 0.2 0.4 0.8 0.4h1.7v3.4h-2.1q-2.3 0-3.3-1.2z"/>
				<path id="Layer" class="s1" d="m390.1 490.8h3.7v3.6h-3.7zm0 7.4h3.7v18.5h-3.7z"/>
				<path id="Layer" fill-rule="evenodd" class="s1" d="m405.9 516q-1.7-0.9-2.6-2.8-0.9-1.8-0.9-4.3v-3q0-2.5 0.9-4.3 0.9-1.8 2.6-2.7 1.7-1 4.1-1 2.4 0 4.1 1 1.7 0.9 2.6 2.7 0.9 1.8 0.9 4.3v3q0 2.6-0.9 4.4-0.9 1.8-2.6 2.7-1.7 0.9-4.1 0.9-2.4 0.1-4.1-0.9zm7.1-3.7q1-1.2 1-3.4v-3q0-2.2-1-3.3-1.1-1.2-3-1.2-1.9 0-2.9 1.2-1.1 1.1-1.1 3.3v3q0 2.2 1.1 3.4 1 1.2 2.9 1.2 1.9 0 3-1.2z"/>
				<path id="Layer" class="s1" d="m426.5 498.2h3.6v18.5h-3.6zm11.2 7.3q0-2-1-3.1-1.1-1-2.9-1-1.8 0-2.7 0.9-1 1-1 2.7l-0.4-3.6q0.9-1.7 2.3-2.6 1.3-0.9 3-0.9 3 0 4.7 2 1.6 1.9 1.6 5.6v11.2h-3.6v-11.2z"/>
			</g>
		</g>
	</g>
</svg>